<?xml version="1.0" standalone="no"?>
<!DOCTYPE svg PUBLIC "-//W3C//DTD SVG 20010904//EN"
 "http://www.w3.org/TR/2001/REC-SVG-20010904/DTD/svg10.dtd">
<svg version="1.0" xmlns="http://www.w3.org/2000/svg"
 width="100.000000pt" height="100.000000pt" viewBox="0 0 100.000000 100.000000"
 preserveAspectRatio="xMidYMid meet">
<metadata>
Created by potrace 1.14, written by Peter Selinger 2001-2017
</metadata>
<g transform="translate(0.000000,100.000000) scale(0.100000,-0.100000)"
fill="#000000" stroke="none">
<path d="M419 996 c-3 -3 -20 -8 -38 -11 -19 -3 -43 -10 -53 -16 -11 -6 -22
-8 -25 -5 -3 2 -14 -4 -26 -15 -11 -10 -27 -19 -34 -19 -7 0 -13 -5 -13 -11 0
-6 -7 -9 -15 -5 -9 3 -15 0 -15 -9 0 -8 -3 -15 -7 -15 -10 0 -78 -60 -69 -60
4 0 -9 -16 -28 -36 -20 -20 -33 -40 -30 -45 3 -5 -4 -18 -14 -30 -11 -11 -19
-28 -17 -37 1 -9 -3 -20 -9 -24 -13 -8 -17 -39 -21 -160 -3 -61 0 -88 8 -88 8
0 8 -3 0 -11 -9 -9 -8 -18 4 -35 8 -13 12 -24 8 -24 -4 0 -2 -6 4 -13 6 -8 8
-17 4 -20 -3 -4 -1 -7 5 -7 7 0 12 -9 12 -20 0 -11 5 -20 10 -20 6 0 10 -7 10
-15 0 -8 5 -15 11 -15 5 0 8 -4 5 -9 -3 -5 1 -12 10 -15 8 -3 12 -10 9 -16 -3
-6 4 -14 17 -19 13 -6 19 -10 15 -10 -13 -1 96 -91 111 -91 6 0 12 -4 12 -10
0 -5 9 -10 20 -10 11 0 20 -5 20 -11 0 -5 4 -8 9 -4 5 3 13 0 16 -6 4 -5 13
-8 21 -5 8 3 14 1 14 -5 0 -5 11 -7 25 -5 14 3 25 1 25 -4 0 -4 41 -8 90 -8
50 0 90 3 90 8 0 4 14 6 31 5 18 -2 33 3 36 10 2 8 13 12 24 10 10 -2 19 0 19
6 0 5 9 9 20 9 11 0 20 5 20 10 0 6 7 10 15 10 8 0 15 5 15 11 0 6 7 9 15 5 8
-3 14 -1 12 3 -1 5 2 11 7 13 18 6 128 129 132 147 7 29 18 51 26 51 5 0 7 3
5 8 -3 4 3 24 13 45 10 20 15 35 10 32 -4 -3 -7 6 -6 19 0 13 5 22 9 19 4 -3
7 34 6 81 -1 47 -4 86 -8 86 -3 0 -7 10 -8 23 -2 21 -9 56 -13 67 -1 3 -2 8
-1 13 0 4 -3 7 -7 7 -4 0 -16 20 -26 44 -10 25 -25 47 -33 50 -8 3 -11 10 -8
16 3 6 -4 10 -17 10 -15 0 -19 3 -11 8 9 6 7 12 -7 25 -11 9 -25 17 -30 17 -6
0 -10 7 -10 16 0 8 -4 13 -8 10 -5 -3 -16 4 -25 15 -9 10 -24 19 -32 19 -8 0
-15 4 -15 10 0 5 -3 9 -7 8 -5 -1 -18 3 -29 10 -12 6 -24 8 -28 5 -3 -3 -6 -1
-6 6 0 8 -7 11 -15 7 -8 -3 -15 -1 -15 5 0 6 -4 7 -10 4 -5 -3 -19 -1 -31 6
-17 9 -20 8 -14 -3 6 -10 5 -11 -6 0 -12 11 -150 18 -160 8z"/>
</g>
</svg>
